HIERARCHY
ROOT hip
{
  OFFSET 0 0 0
  CHANNELS 6 Xposition Yposition Zposition Zrotation Yrotation Xrotation
  JOINT abdomen
  {
    OFFSET 0 20.6881 -0.73152
    CHANNELS 3 Zrotation Xrotation Yrotation
    JOINT chest
    {
      OFFSET 0 11.7043 -0.48768
      CHANNELS 3 Zrotation Xrotation Yrotation
      JOINT neck
      {
        OFFSET 0 22.1894 -2.19456
        CHANNELS 3 Zrotation Xrotation Yrotation
        JOINT head
        {
          OFFSET -0.24384 7.07133 1.2192
          CHANNELS 3 Zrotation Xrotation Yrotation
          JOINT leftEye
          {
            OFFSET 4.14528 8.04674 8.04672
            CHANNELS 3 Zrotation Xrotation Yrotation
            End Site
            {
              OFFSET 1 0 0
            }
          }
          JOINT rightEye
          {
            OFFSET -3.6576 8.04674 8.04672
            CHANNELS 3 Zrotation Xrotation Yrotation
            End Site
            {
              OFFSET 1 0 0
            }
          }
        }
      }
      JOINT rCollar
      {
        OFFSET -2.68224 19.2634 -4.8768
        CHANNELS 3 Zrotation Xrotation Yrotation
        JOINT rShldr
        {
          OFFSET -8.77824 -1.95073 1.46304
          CHANNELS 3 Zrotation Xrotation Yrotation
          JOINT rForeArm
          {
            OFFSET -28.1742 -1.7115 0.48768
            CHANNELS 3 Zrotation Xrotation Yrotation
            JOINT rHand
            {
              OFFSET -22.5879 0.773209 7.07136
              CHANNELS 3 Zrotation Xrotation Yrotation
              JOINT rThumb1
              {
                OFFSET -1.2192 -0.487915 3.41376
                CHANNELS 3 Zrotation Xrotation Yrotation
                JOINT rThumb2
                {
                  OFFSET -3.37035 -0.52449 3.41376
                  CHANNELS 3 Zrotation Xrotation Yrotation
                  End Site
                  {
                    OFFSET -1.78271 -1.18214 1.43049
                  }
                }
              }
              JOINT rIndex1
              {
                OFFSET -7.75947 0.938293 5.60832
                CHANNELS 3 Zrotation Xrotation Yrotation
                JOINT rIndex2
                {
                  OFFSET -2.54057 -0.884171 1.56538
                  CHANNELS 3 Zrotation Xrotation Yrotation
                  End Site
                  {
                    OFFSET -1.62519 -0.234802 1.16502
                  }
                }
              }
              JOINT rMid1
              {
                OFFSET -8.24714 1.18213 3.41376
                CHANNELS 3 Zrotation Xrotation Yrotation
                JOINT rMid2
                {
                  OFFSET -3.10165 -0.590103 1.0647
                  CHANNELS 3 Zrotation Xrotation Yrotation
                  End Site
                  {
                    OFFSET -2.48547 -0.328903 0.83742
                  }
                }
              }
              JOINT rRing1
              {
                OFFSET -8.82822 0.546677 1.51678
                CHANNELS 3 Zrotation Xrotation Yrotation
                JOINT rRing2
                {
                  OFFSET -2.60934 -0.819778 -0.0198488
                  CHANNELS 3 Zrotation Xrotation Yrotation
                  End Site
                  {
                    OFFSET -2.33842 -0.294052 0.168128
                  }
                }
              }
              JOINT rPinky1
              {
                OFFSET -8.27202 -0.0477905 -0.4584
                CHANNELS 3 Zrotation Xrotation Yrotation
                JOINT rPinky2
                {
                  OFFSET -1.82734 -0.647385 -0.700984
                  CHANNELS 3 Zrotation Xrotation Yrotation
                  End Site
                  {
                    OFFSET -1.69225 -0.51767 -0.607171
                  }
                }
              }
            }
          }
        }
      }
      JOINT lCollar
      {
        OFFSET 2.68224 19.2634 -4.8768
        CHANNELS 3 Zrotation Xrotation Yrotation
        JOINT lShldr
        {
          OFFSET 8.77824 -1.95073 1.46304
          CHANNELS 3 Zrotation Xrotation Yrotation
          JOINT lForeArm
          {
            OFFSET 28.1742 -1.7115 0.48768
            CHANNELS 3 Zrotation Xrotation Yrotation
            JOINT lHand
            {
              OFFSET 22.5879 0.773209 7.07136
              CHANNELS 3 Zrotation Xrotation Yrotation
              JOINT lThumb1
              {
                OFFSET 1.2192 -0.487915 3.41376
                CHANNELS 3 Zrotation Xrotation Yrotation
                JOINT lThumb2
                {
                  OFFSET 3.37035 -0.52449 3.41376
                  CHANNELS 3 Zrotation Xrotation Yrotation
                  End Site
                  {
                    OFFSET 1.78271 -1.18214 1.43049
                  }
                }
              }
              JOINT lIndex1
              {
                OFFSET 7.75947 0.938293 5.60832
                CHANNELS 3 Zrotation Xrotation Yrotation
                JOINT lIndex2
                {
                  OFFSET 2.54057 -0.884171 1.56538
                  CHANNELS 3 Zrotation Xrotation Yrotation
                  End Site
                  {
                    OFFSET 1.62519 -0.234802 1.16502
                  }
                }
              }
              JOINT lMid1
              {
                OFFSET 8.24714 1.18213 3.41376
                CHANNELS 3 Zrotation Xrotation Yrotation
                JOINT lMid2
                {
                  OFFSET 3.10165 -0.590103 1.0647
                  CHANNELS 3 Zrotation Xrotation Yrotation
                  End Site
                  {
                    OFFSET 2.48547 -0.328903 0.83742
                  }
                }
              }
              JOINT lRing1
              {
                OFFSET 8.82822 0.546677 1.51678
                CHANNELS 3 Zrotation Xrotation Yrotation
                JOINT lRing2
                {
                  OFFSET 2.60934 -0.819778 -0.0198488
                  CHANNELS 3 Zrotation Xrotation Yrotation
                  End Site
                  {
                    OFFSET 2.33842 -0.294052 0.168128
                  }
                }
              }
              JOINT lPinky1
              {
                OFFSET 8.27202 -0.0477905 -0.4584
                CHANNELS 3 Zrotation Xrotation Yrotation
                JOINT lPinky2
                {
                  OFFSET 1.82734 -0.647385 -0.700984
                  CHANNELS 3 Zrotation Xrotation Yrotation
                  End Site
                  {
                    OFFSET 1.69225 -0.51767 -0.607171
                  }
                }
              }
            }
          }
        }
      }
    }
  }
  JOINT rButtock
  {
    OFFSET -8.77824 4.35084 1.2192
    CHANNELS 3 Zrotation Xrotation Yrotation
    JOINT rThigh
    {
      OFFSET 0 -1.70687 -2.19456
      CHANNELS 3 Zrotation Xrotation Yrotation
      JOINT rShin
      {
        OFFSET 0 -36.8199 0.73152
        CHANNELS 3 Zrotation Xrotation Yrotation
        JOINT rFoot
        {
          OFFSET 0.73152 -45.1104 -5.12064
          CHANNELS 3 Zrotation Xrotation Yrotation
          End Site
          {
            OFFSET -1.1221 -3.69964 12.103
          }
        }
      }
    }
  }
  JOINT lButtock
  {
    OFFSET 8.77824 4.35084 1.2192
    CHANNELS 3 Zrotation Xrotation Yrotation
    JOINT lThigh
    {
      OFFSET 0 -1.70687 -2.19456
      CHANNELS 3 Zrotation Xrotation Yrotation
      JOINT lShin
      {
        OFFSET 0 -36.8199 0.73152
        CHANNELS 3 Zrotation Xrotation Yrotation
        JOINT lFoot
        {
          OFFSET -0.73152 -45.1104 -5.12064
          CHANNELS 3 Zrotation Xrotation Yrotation
          End Site
          {
            OFFSET 1.1221 -3.69964 12.103
          }
        }
      }
    }
  }
}
MOTION
Frames:	6
Frame Time:	0.00833333
8.46882 85.3572 177.055 0.0 0.0 0.0 1.31604 -0.00470374 0.0362373 0.363459 -0.00359447 0.0629618 5.44012e-15 -2.38542e-15 -3.72721e-16 1.62693e-14 -6.36111e-15 -1.04207e-15 -0.0 0.0 0.0 -0.0 0.0 0.0 2.78172e-15 -6.0179e-18 0.0 6.04235e-14 -2.23633e-16 -2.38542e-15 9.77325e-13 -2.93804e-13 -8.90555e-14 1.11441e-11 2.63862e-13 -6.87e-13 2.62929e-11 -6.41959e-14 -1.66025e-12 4.54024e-11 -1.11319e-13 -2.89033e-12 2.62984e-11 -6.20208e-14 -1.67933e-12 7.73091 5.47488 0.417314 2.62921e-11 -6.44062e-14 -1.66979e-12 2.90554 0.965183 0.102902 2.63018e-11 -6.41081e-14 -1.67059e-12 10.2786 0.731801 0.0259123 2.62942e-11 -6.55989e-14 -1.66979e-12 2.22167 -0.733487 -0.20892 2.88383e-15 -4.85314e-18 -2.98177e-16 5.45096e-14 -1.30452e-16 -4.37326e-15 9.74144e-13 2.84063e-13 -8.5875e-14 1.11474e-11 -3.24516e-13 -6.80639e-13 2.62941e-11 -8.99165e-14 -1.67297e-12 4.54024e-11 -1.55847e-13 -2.87284e-12 2.62869e-11 -8.70677e-14 -1.65707e-12 -7.73091 5.47488 -0.417314 2.62943e-11 -8.95525e-14 -1.66979e-12 -2.90554 0.965183 -0.102902 2.62861e-11 -8.95525e-14 -1.66582e-12 -10.2786 0.731801 -0.0259123 2.62972e-11 -8.82604e-14 -1.67297e-12 -2.22167 -0.733487 0.20892 -2.03217e-16 0.0 -3.88251e-19 1.46244 -6.1386 -0.134752 0.00180501 5.56143 0.0541784 -0.478158 0.575046 0.0659692 2.03217e-16 0.0 3.88251e-19 0.544932 -1.92085 0.00800138 0.00890866 -2.07861 0.0733687 0.452616 3.99724 -0.131507
9.93253 83.337 165.658 178.861 1.7491 -170.183 -0.786065 -2.08633 4.5855 0.277851 0.7506 1.38872 -1.12273 -5.93222 -1.32397 1.69984 10.2783 -3.48234 -0.0 0.0 0.0 -0.0 0.0 0.0 -8.86615e-15 1.88917e-14 4.39349e-14 21.1681 16.2446 1.56026 -21.8651 -19.7181 15.0496 0.00578655 1.68835 0.23691 4.7107e-11 1.04541e-11 1.13385e-11 8.07315e-11 1.641e-11 2.01063e-11 4.71111e-11 1.04596e-11 1.13209e-11 7.73091 5.47488 0.417314 4.71041e-11 1.04604e-11 1.13325e-11 2.90554 0.965183 0.102902 4.71151e-11 1.04583e-11 1.13301e-11 10.2786 0.731801 0.0259123 4.7108e-11 1.04574e-11 1.13311e-11 2.22167 -0.733487 -0.20892 -8.76921e-15 1.88947e-14 4.36457e-14 -15.8716 18.1666 9.29083 24.6501 -22.4775 -14.5206 -0.0441665 4.66546 -0.647865 -7.95315e-11 -1.08209e-10 2.71163e-11 -1.37841e-10 -1.82777e-10 4.90099e-11 -7.95372e-11 -1.08206e-10 2.71286e-11 -7.73091 5.47488 -0.417314 -7.95324e-11 -1.08212e-10 2.71178e-11 -2.90554 0.965183 -0.102902 -7.95386e-11 -1.08208e-10 2.71216e-11 -10.2786 0.731801 -0.0259123 -7.95282e-11 -1.08208e-10 2.71127e-11 -2.22167 -0.733487 0.20892 -2.03217e-16 0.0 -3.88251e-19 1.4584 -2.59361 -0.171342 -0.0285373 13.5044 0.138039 -0.018638 10.0905 -4.51028 2.03217e-16 0.0 3.88251e-19 1.56674 -13.6755 -1.86435 0.029173 5.44282 0.00772329 0.337481 10.1812 1.0701
9.88186 83.5128 163.376 178.81 1.9406 -170.25 -2.66465 -4.25678 9.42654 0.142251 1.54187 2.79605 -2.60855 -12.2016 -2.77737 4.94751 21.0108 -7.56723 -0.0 0.0 0.0 -0.0 0.0 0.0 -2.17513e-14 4.04481e-14 9.3289e-14 42.3851 33.389 3.75183 -32.0983 -35.7266 36.8001 -0.00331907 3.4793 0.488918 7.66435e-11 4.63804e-11 1.75938e-11 1.31027e-10 7.67046e-11 3.14566e-11 7.6646e-11 4.63894e-11 1.75775e-11 7.73091 5.47488 0.417314 7.66382e-11 4.63936e-11 1.75916e-11 2.90554 0.965183 0.102902 7.66506e-11 4.63891e-11 1.75874e-11 10.2786 0.731801 0.0259123 7.66441e-11 4.63889e-11 1.75885e-11 2.22167 -0.733487 -0.20892 -2.16566e-14 4.04533e-14 9.30064e-14 -40.2058 35.6837 22.531 35.4658 -40.8981 -37.7396 0.0252963 9.58499 -1.34572 -1.97848e-10 -2.25926e-10 6.10515e-11 -3.42705e-10 -3.81421e-10 1.10061e-10 -1.97852e-10 -2.25924e-10 6.10599e-11 -7.73091 5.47488 -0.417314 -1.9785e-10 -2.25934e-10 6.10512e-11 -2.90554 0.965183 -0.102902 -1.97854e-10 -2.25925e-10 6.10548e-11 -10.2786 0.731801 -0.0259123 -1.97844e-10 -2.25926e-10 6.1044e-11 -2.22167 -0.733487 0.20892 -2.03217e-16 0.0 -3.88251e-19 1.46069 1.16063 -0.209431 -0.086584 21.7449 0.233847 2.22603 19.9958 -9.81576 2.03217e-16 0.0 3.88251e-19 1.73463 -26.0798 -4.20325 0.0683084 13.3613 -0.0658677 -0.0726401 16.6494 2.40105
9.81389 83.5276 161.142 178.767 2.0105 -170.398 -4.00431 -6.09125 13.7541 0.00195492 2.25403 4.04301 -4.22491 -17.7577 -4.14862 9.32691 30.3421 -11.9329 -0.0 0.0 0.0 -0.0 0.0 0.0 -3.21619e-14 5.66871e-14 1.31805e-13 59.7084 48.5504 6.79772 -30.4448 -40.2363 62.1355 -0.0246656 5.0647 0.713207 8.87352e-11 3.14908e-11 3.7336e-11 1.5139e-10 4.94526e-11 6.60996e-11 8.87364e-11 3.15028e-11 3.73212e-11 7.73091 5.47488 0.417314 8.87281e-11 3.15099e-11 3.73371e-11 2.90554 0.965183 0.102902 8.87416e-11 3.15032e-11 3.73316e-11 10.2786 0.731801 0.0259123 8.87354e-11 3.15035e-11 3.7333e-11 2.22167 -0.733487 -0.20892 -3.20753e-14 5.66939e-14 1.31533e-13 -71.5062 47.2935 41.0885 31.1006 -45.6604 -67.4121 0.192192 13.9891 -1.99639 -2.91183e-10 -3.24447e-10 8.46949e-11 -5.04327e-10 -5.4802e-10 1.52775e-10 -2.91185e-10 -3.24444e-10 8.46999e-11 -7.73091 5.47488 -0.417314 -2.91186e-10 -3.24457e-10 8.46929e-11 -2.90554 0.965183 -0.102902 -2.91188e-10 -3.24445e-10 8.46963e-11 -10.2786 0.731801 -0.0259123 -2.91179e-10 -3.24447e-10 8.4684e-11 -2.22167 -0.733487 0.20892 -2.03217e-16 0.0 -3.88251e-19 1.46407 4.49633 -0.246299 -0.169075 29.3899 0.33837 5.93591 28.338 -15.3268 2.03217e-16 0.0 3.88251e-19 0.809094 -37.0092 -6.83139 0.123389 20.4856 -0.131918 -0.727082 22.5118 3.70477
9.74334 83.319 158.865 178.94 2.0391 -170.908 -4.70441 -7.24066 16.7287 -0.0766033 2.77314 4.88648 -5.54248 -21.5685 -5.14364 13.3754 36.6417 -15.5906 -0.0 0.0 0.0 -0.0 0.0 0.0 -3.6386e-14 5.96327e-14 1.43224e-13 70.3142 58.9401 10.07 -28.4199 -36.5274 77.8957 -0.0464093 6.13656 0.865783 5.7215e-11 -1.10438e-10 9.07953e-11 9.69202e-11 -1.96666e-10 1.58974e-10 5.72158e-11 -1.10424e-10 9.07826e-11 7.73091 5.47488 0.417314 5.72069e-11 -1.10416e-10 9.07985e-11 2.90554 0.965183 0.102902 5.72211e-11 -1.10424e-10 9.07929e-11 10.2786 0.731801 0.0259123 5.72148e-11 -1.10424e-10 9.07953e-11 2.22167 -0.733487 -0.20892 -3.63219e-14 5.96393e-14 1.42976e-13 -99.3229 51.0657 58.4463 27.924 -40.7974 -85.3629 0.373129 17.1115 -2.47978 -3.22063e-10 -3.74975e-10 8.26085e-11 -5.57843e-10 -6.34508e-10 1.4965e-10 -3.22065e-10 -3.74972e-10 8.26117e-11 -7.73091 5.47488 -0.417314 -3.22067e-10 -3.74985e-10 8.26054e-11 -2.90554 0.965183 -0.102902 -3.22067e-10 -3.74972e-10 8.26085e-11 -10.2786 0.731801 -0.0259123 -3.2206e-10 -3.74974e-10 8.25958e-11 -2.22167 -0.733487 0.20892 -2.03217e-16 0.0 -3.88251e-19 1.461 6.78571 -0.278473 -0.261166 35.5463 0.441239 9.48582 33.5389 -19.7112 2.03217e-16 0.0 3.88251e-19 -0.611574 -44.4323 -8.99179 0.176819 25.6243 -0.168979 -1.40863 26.8928 4.74479
9.67774 83.0641 156.612 179.078 2.0616 -171.324 -4.79714 -7.55882 17.7966 -0.0359593 3.03408 5.17149 -6.14831 -22.9722 -5.49518 15.1031 39.0901 -17.0726 -0.0 0.0 0.0 -0.0 0.0 0.0 -3.1575e-14 4.03428e-14 1.11861e-13 74.6293 62.9247 10.9569 -28.3368 -33.7447 82.4543 -0.0545813 6.44519 0.909945 -3.98944e-11 -4.51037e-10 2.04456e-10 -7.00009e-11 -7.84815e-10 3.55817e-10 -3.98927e-11 -4.51023e-10 2.04447e-10 7.73091 5.47488 0.417314 -3.99019e-11 -4.51016e-10 2.04459e-10 2.90554 0.965183 0.102902 -3.98878e-11 -4.51025e-10 2.04456e-10 10.2786 0.731801 0.0259123 -3.98951e-11 -4.51024e-10 2.04461e-10 2.22167 -0.733487 -0.20892 -3.15587e-14 4.03466e-14 1.11661e-13 -111.057 51.0337 65.5013 27.8785 -37.5906 -90.5135 0.465228 18.4504 -2.6937 -2.70309e-10 -3.769e-10 4.16164e-11 -4.68278e-10 -6.40778e-10 7.73666e-11 -2.7031e-10 -3.76897e-10 4.162e-11 -7.73091 5.47488 -0.417314 -2.70313e-10 -3.76905e-10 4.16127e-11 -2.90554 0.965183 -0.102902 -2.70313e-10 -3.76897e-10 4.16154e-11 -10.2786 0.731801 -0.0259123 -2.70307e-10 -3.76898e-10 4.16039e-11 -2.22167 -0.733487 0.20892 -2.03217e-16 0.0 -3.88251e-19 1.46948 7.66888 -0.26757 -0.338867 39.5211 0.521334 10.7253 34.9273 -21.2557 2.03217e-16 0.0 3.88251e-19 -1.17566 -47.1075 -9.36907 0.203905 27.7985 -0.149381 -1.83919 29.5849 5.20999
